<?xml version="1.0" encoding="utf-8"?>
<!-- Generator: Adobe Illustrator 18.0.0, SVG Export Plug-In . SVG Version: 6.00 Build 0)  -->
<!DOCTYPE svg PUBLIC "-//W3C//DTD SVG 1.1//EN" "http://www.w3.org/Graphics/SVG/1.1/DTD/svg11.dtd">
<svg version="1.1" id="Layer_1" xmlns="http://www.w3.org/2000/svg" xmlns:xlink="http://www.w3.org/1999/xlink" x="0px" y="0px"
	 width="256px" height="256px" viewBox="0 0 256 256" style="enable-background:new 0 0 256 256;" xml:space="preserve">
<style type="text/css">
	.st0{fill:#512200;stroke:#512200;stroke-width:7.8739;stroke-miterlimit:10;}
</style>
<g>
	<g>
		<path class="st0" d="M205.6,110.9c2.6,10.1,4,20.8,4,32c0,1.3,0,2.6-0.1,3.9l12.7,5.1l10.5-9l8,9.8L225,166.2l-16.4-6.8
			c-1.9,15-6.3,28.9-12.6,41l2.3-3.2l12.4,7.3l11.7-7.3l6.5,10.9L211.2,219l-19.3-11.7c-15.1,24.2-38.5,39.8-64.8,39.8
			c-26.2,0-49.6-15.5-64.7-39.6l-19,11.5l-17.5-10.9l6.5-10.9l11.7,7.3l12.4-7.3l0.9,1.2c-5.8-11.6-9.8-24.8-11.6-38.9l-15.9,6.6
			l-15.8-13.5l8-9.8l10.5,9l12.2-4.9c0-1.4-0.1-2.7-0.1-4.1c0-11.2,1.4-21.9,4-32l-20.6-0.8l-9-18.9l11.3-5.6l6,12.6L50.5,99
			l0.3,4.2c8.5-26.1,25.2-46.8,46-57.2c0.4-8,6.8-14.4,14.8-14.4H146c8.2,0,14.8,6.8,14.8,15.2c0,0.4-0.1,0.7-0.1,1.1
			c19.6,11.1,35.1,31.5,43,56.9l0.3-5.7l14.2-0.7l6-12.6l11.3,5.6l-9,18.9L205.6,110.9z"/>
		<polygon class="st0" points="168.8,18.2 167.1,22.7 164.6,23.9 159.4,25.4 155,28.1 148.8,31.6 148.8,28.1 155.7,23 160.8,21.4 
			165.3,18.2 167.9,12.9 172.9,11.2 171.5,16.1 		"/>
		<polygon class="st0" points="98.1,25.4 92.8,23.9 90.3,22.7 88.7,18.2 85.9,16.1 84.6,11.2 89.6,12.9 92.2,18.2 96.6,21.4 
			101.7,23 108.7,28.1 108.7,31.6 102.5,28.1 		"/>
	</g>
</g>
<g>
</g>
<g>
</g>
<g>
</g>
<g>
</g>
<g>
</g>
<g>
</g>
<g>
</g>
<g>
</g>
<g>
</g>
<g>
</g>
<g>
</g>
<g>
</g>
<g>
</g>
<g>
</g>
<g>
</g>
</svg>
