<svg xmlns="http://www.w3.org/2000/svg" width="256" height="256" viewBox="0 0 256 256"><style type="text/css">.st0{fill:#512200;stroke:#512200;stroke-width:7.8739;stroke-miterlimit:10;}</style><path class="st0" d="M205.6 110.9c2.6 10.1 4 20.8 4 32 0 1.3 0 2.6-.1 3.9l12.7 5.1 10.5-9 8 9.8-15.7 13.5-16.4-6.8c-1.9 15-6.3 28.9-12.6 41l2.3-3.2 12.4 7.3 11.7-7.3 6.5 10.9-17.7 10.9-19.3-11.7c-15.1 24.2-38.5 39.8-64.8 39.8-26.2 0-49.6-15.5-64.7-39.6l-19 11.5-17.5-10.9 6.5-10.9 11.7 7.3 12.4-7.3.9 1.2c-5.8-11.6-9.8-24.8-11.6-38.9l-15.9 6.6-15.8-13.5 8-9.8 10.5 9 12.2-4.9-.1-4.1c0-11.2 1.4-21.9 4-32l-20.6-.8-9-18.9 11.3-5.6 6 12.6 14.1.9.3 4.2c8.5-26.1 25.2-46.8 46-57.2.4-8 6.8-14.4 14.8-14.4h34.4c8.2 0 14.8 6.8 14.8 15.2l-.1 1.1c19.6 11.1 35.1 31.5 43 56.9l.3-5.7 14.2-.7 6-12.6 11.3 5.6-9 18.9-20.9.6zM168.8 18.2l-1.7 4.5-2.5 1.2-5.2 1.5-4.4 2.7-6.2 3.5v-3.5l6.9-5.1 5.1-1.6 4.5-3.2 2.6-5.3 5-1.7-1.4 4.9zM98.1 25.4l-5.3-1.5-2.5-1.2-1.6-4.5-2.8-2.1-1.3-4.9 5 1.7 2.6 5.3 4.4 3.2 5.1 1.6 7 5.1v3.5l-6.2-3.5z"/></svg>